<svg width="24" height="24" viewBox="0 0 24 24" fill="none" xmlns="http://www.w3.org/2000/svg">
<rect width="24" height="24" rx="4" fill="#6A6A6A"/>
<g clip-path="url(#clip0_1133_2526)">
<path d="M10.6129 18.2203C9.74905 18.2203 8.96666 18.0145 8.26572 17.6029C7.56972 17.1867 7.01686 16.5762 6.60715 15.7713C6.20238 14.9619 6 13.9695 6 12.7942C6 11.5869 6.20979 10.5831 6.62937 9.78277C7.04894 8.9779 7.60674 8.37652 8.30274 7.97866C9.00368 7.57622 9.77127 7.375 10.6055 7.375C11.2423 7.375 11.7729 7.47561 12.1974 7.67683C12.6269 7.87348 12.9724 8.12043 13.234 8.41768C13.5006 8.71037 13.703 8.99848 13.8412 9.28201H13.9374V4H17.0843V18.0488H13.9744V16.3613H13.8412C13.6931 16.654 13.4833 16.9444 13.2118 17.2325C12.9452 17.516 12.5972 17.7515 12.1678 17.939C11.7433 18.1265 11.225 18.2203 10.6129 18.2203ZM11.6125 15.8948C12.1209 15.8948 12.5504 15.7668 12.9008 15.5107C13.2562 15.25 13.5277 14.8864 13.7153 14.42C13.9078 13.9535 14.0041 13.407 14.0041 12.7805C14.0041 12.154 13.9103 11.6098 13.7227 11.1479C13.5351 10.686 13.2636 10.3293 12.9082 10.0777C12.5528 9.82622 12.1209 9.70046 11.6125 9.70046C11.0942 9.70046 10.6573 9.83079 10.3019 10.0915C9.9465 10.3521 9.67748 10.7134 9.49484 11.1753C9.3122 11.6372 9.22088 12.1723 9.22088 12.7805C9.22088 13.3933 9.3122 13.9352 9.49484 14.4062C9.68241 14.8727 9.95144 15.2386 10.3019 15.5038C10.6573 15.7645 11.0942 15.8948 11.6125 15.8948Z" fill="white"/>
<path d="M19.6776 18.0488V7.5122H22.7356V9.35061H22.8541C23.0614 8.69665 23.4094 8.20274 23.8981 7.8689C24.3868 7.53049 24.9495 7.36128 25.5863 7.36128C25.7442 7.36128 25.9145 7.37043 26.0972 7.38872C26.2798 7.40701 26.4402 7.43216 26.5784 7.46418V10.0572C26.4304 10.016 26.2255 9.97942 25.9639 9.94741C25.7023 9.9154 25.4629 9.89939 25.2457 9.89939C24.7817 9.89939 24.367 9.99314 24.0017 10.1806C23.6414 10.3636 23.3551 10.6197 23.1428 10.9489C22.9355 11.2782 22.8319 11.6578 22.8319 12.0877V18.0488H19.6776Z" fill="white"/>
<path d="M32.8184 18.2546C31.6683 18.2546 30.6736 18.0282 29.8345 17.5755C29.0003 17.1181 28.3561 16.4825 27.902 15.6684C27.4478 14.8498 27.2208 13.9009 27.2208 12.8216C27.2208 11.7332 27.4478 10.782 27.902 9.96799C28.3561 9.14939 29.0003 8.51372 29.8345 8.06098C30.6736 7.60366 31.6683 7.375 32.8184 7.375C33.9686 7.375 34.9607 7.60366 35.795 8.06098C36.6341 8.51372 37.2808 9.14939 37.7349 9.96799C38.189 10.782 38.4161 11.7332 38.4161 12.8216C38.4161 13.9009 38.189 14.8498 37.7349 15.6684C37.2808 16.4825 36.6341 17.1181 35.795 17.5755C34.9607 18.0282 33.9686 18.2546 32.8184 18.2546ZM32.8332 15.9909C33.3565 15.9909 33.7933 15.8537 34.1438 15.5793C34.4943 15.3003 34.7584 14.9207 34.9361 14.4405C35.1187 13.9604 35.21 13.4139 35.21 12.8011C35.21 12.1883 35.1187 11.6418 34.9361 11.1616C34.7584 10.6814 34.4943 10.3018 34.1438 10.0229C33.7933 9.7439 33.3565 9.60442 32.8332 9.60442C32.3051 9.60442 31.8608 9.7439 31.5005 10.0229C31.1451 10.3018 30.876 10.6814 30.6934 11.1616C30.5157 11.6418 30.4268 12.1883 30.4268 12.8011C30.4268 13.4139 30.5157 13.9604 30.6934 14.4405C30.876 14.9207 31.1451 15.3003 31.5005 15.5793C31.8608 15.8537 32.3051 15.9909 32.8332 15.9909Z" fill="white"/>
<path d="M40.4671 22V7.5122H43.5769V9.28201H43.7176C43.8558 8.99848 44.0557 8.71037 44.3173 8.41768C44.5839 8.12043 44.9294 7.87348 45.3539 7.67683C45.7834 7.47561 46.3165 7.375 46.9533 7.375C47.7826 7.375 48.5477 7.57622 49.2486 7.97866C49.9496 8.37652 50.5098 8.9779 50.9294 9.78277C51.349 10.5831 51.5588 11.5869 51.5588 12.7942C51.5588 13.9695 51.3539 14.9619 50.9442 15.7713C50.5394 16.5762 49.9866 17.1867 49.2856 17.6029C48.5896 18.0145 47.8097 18.2203 46.9459 18.2203C46.3338 18.2203 45.813 18.1265 45.3836 17.939C44.959 17.7515 44.611 17.516 44.3395 17.2325C44.0681 16.9444 43.8607 16.654 43.7176 16.3613H43.6213V22H40.4671ZM43.5547 12.7805C43.5547 13.407 43.6485 13.9535 43.8361 14.42C44.0236 14.8864 44.2951 15.25 44.6505 15.5107C45.0059 15.7668 45.4379 15.8948 45.9463 15.8948C46.4596 15.8948 46.894 15.7645 47.2494 15.5038C47.6049 15.2386 47.8739 14.8727 48.0565 14.4062C48.2441 13.9352 48.3379 13.3933 48.3379 12.7805C48.3379 12.1723 48.2466 11.6372 48.0639 11.1753C47.8813 10.7134 47.6123 10.3521 47.2568 10.0915C46.9014 9.83079 46.4646 9.70046 45.9463 9.70046C45.4329 9.70046 44.9985 9.82622 44.6431 10.0777C44.2927 10.3293 44.0236 10.686 43.8361 11.1479C43.6485 11.6098 43.5547 12.154 43.5547 12.7805Z" fill="white"/>
<path d="M58.8002 18.2546C57.6352 18.2546 56.6332 18.0259 55.794 17.5686C54.9598 17.1067 54.3181 16.4665 53.8689 15.6479C53.4246 14.8293 53.2025 13.8872 53.2025 12.8216C53.2025 11.7424 53.4271 10.7957 53.8763 9.98171C54.3304 9.16311 54.9746 8.52515 55.8088 8.06783C56.6431 7.60595 57.6352 7.375 58.7854 7.375C59.7775 7.375 60.6463 7.54192 61.3917 7.87576C62.1371 8.2096 62.7269 8.67835 63.1613 9.28201C63.5957 9.88567 63.8351 10.5945 63.8795 11.4085H60.903C60.8191 10.8826 60.597 10.4596 60.2366 10.1395C59.8812 9.81479 59.4147 9.65244 58.8372 9.65244C58.3485 9.65244 57.9215 9.77591 57.5563 10.0229C57.1959 10.2652 56.9145 10.6197 56.7122 11.0861C56.5098 11.5526 56.4086 12.1174 56.4086 12.7805C56.4086 13.4527 56.5073 14.0244 56.7048 14.4954C56.9071 14.9665 57.191 15.3255 57.5563 15.5724C57.9215 15.8194 58.3485 15.9428 58.8372 15.9428C59.1975 15.9428 59.5209 15.8742 59.8072 15.737C60.0984 15.5998 60.3378 15.4009 60.5254 15.1402C60.7179 14.875 60.8438 14.5572 60.903 14.1867H63.8795C63.8302 14.9916 63.5932 15.7005 63.1687 16.3133C62.7491 16.9215 62.1691 17.3971 61.4287 17.7401C60.6883 18.0831 59.8121 18.2546 58.8002 18.2546Z" fill="white"/>
<path d="M69.0533 4V18.0488H65.8991V4H69.0533Z" fill="white"/>
<path d="M76.7186 18.2546C75.5685 18.2546 74.5738 18.0282 73.7347 17.5755C72.9005 17.1181 72.2563 16.4825 71.8022 15.6684C71.348 14.8498 71.121 13.9009 71.121 12.8216C71.121 11.7332 71.348 10.782 71.8022 9.96799C72.2563 9.14939 72.9005 8.51372 73.7347 8.06098C74.5738 7.60366 75.5685 7.375 76.7186 7.375C77.8688 7.375 78.8609 7.60366 79.6952 8.06098C80.5343 8.51372 81.181 9.14939 81.6351 9.96799C82.0892 10.782 82.3163 11.7332 82.3163 12.8216C82.3163 13.9009 82.0892 14.8498 81.6351 15.6684C81.181 16.4825 80.5343 17.1181 79.6952 17.5755C78.8609 18.0282 77.8688 18.2546 76.7186 18.2546ZM76.7334 15.9909C77.2567 15.9909 77.6935 15.8537 78.044 15.5793C78.3945 15.3003 78.6585 14.9207 78.8363 14.4405C79.0189 13.9604 79.1102 13.4139 79.1102 12.8011C79.1102 12.1883 79.0189 11.6418 78.8363 11.1616C78.6585 10.6814 78.3945 10.3018 78.044 10.0229C77.6935 9.7439 77.2567 9.60442 76.7334 9.60442C76.2053 9.60442 75.761 9.7439 75.4007 10.0229C75.0452 10.3018 74.7762 10.6814 74.5936 11.1616C74.4159 11.6418 74.327 12.1883 74.327 12.8011C74.327 13.4139 74.4159 13.9604 74.5936 14.4405C74.7762 14.9207 75.0452 15.3003 75.4007 15.5793C75.761 15.8537 76.2053 15.9909 76.7334 15.9909Z" fill="white"/>
<path d="M91.6605 13.5625V7.5122H94.8148V18.0488H91.7864V16.1349H91.6679C91.4112 16.7523 90.9843 17.2485 90.387 17.6235C89.7946 17.9985 89.0715 18.186 88.2175 18.186C87.4573 18.186 86.7885 18.0259 86.211 17.7058C85.6334 17.3857 85.1817 16.9306 84.856 16.3407C84.5351 15.7508 84.3722 15.0442 84.3673 14.221V7.5122H87.5215V13.6997C87.5265 14.3216 87.7066 14.8133 88.062 15.1745C88.4174 15.5358 88.8938 15.7165 89.4911 15.7165C89.8712 15.7165 90.2266 15.6364 90.5573 15.4764C90.888 15.3117 91.1546 15.0694 91.3569 14.7492C91.5643 14.4291 91.6655 14.0335 91.6605 13.5625Z" fill="white"/>
<path d="M101.529 18.2203C100.665 18.2203 99.8824 18.0145 99.1815 17.6029C98.4855 17.1867 97.9326 16.5762 97.5229 15.7713C97.1181 14.9619 96.9157 13.9695 96.9157 12.7942C96.9157 11.5869 97.1255 10.5831 97.5451 9.78277C97.9647 8.9779 98.5225 8.37652 99.2185 7.97866C99.9194 7.57622 100.687 7.375 101.521 7.375C102.158 7.375 102.689 7.47561 103.113 7.67683C103.543 7.87348 103.888 8.12043 104.15 8.41768C104.416 8.71037 104.619 8.99848 104.757 9.28201H104.853V4H108V18.0488H104.89V16.3613H104.757C104.609 16.654 104.399 16.9444 104.128 17.2325C103.861 17.516 103.513 17.7515 103.084 17.939C102.659 18.1265 102.141 18.2203 101.529 18.2203ZM102.528 15.8948C103.037 15.8948 103.466 15.7668 103.817 15.5107C104.172 15.25 104.443 14.8864 104.631 14.42C104.824 13.9535 104.92 13.407 104.92 12.7805C104.92 12.154 104.826 11.6098 104.638 11.1479C104.451 10.686 104.179 10.3293 103.824 10.0777C103.469 9.82622 103.037 9.70046 102.528 9.70046C102.01 9.70046 101.573 9.83079 101.218 10.0915C100.862 10.3521 100.593 10.7134 100.411 11.1753C100.228 11.6372 100.137 12.1723 100.137 12.7805C100.137 13.3933 100.228 13.9352 100.411 14.4062C100.598 14.8727 100.867 15.2386 101.218 15.5038C101.573 15.7645 102.01 15.8948 102.528 15.8948Z" fill="white"/>
</g>
<defs>
<clipPath id="clip0_1133_2526">
<rect width="15" height="20" fill="white" transform="translate(4 2)"/>
</clipPath>
</defs>
</svg>
