<svg xmlns="http://www.w3.org/2000/svg" width="100" height="18" viewBox="0 0 100 18" fill="none">
<path d="M4.52244 14.2203C3.67554 14.2203 2.90849 14.0145 2.22129 13.6029C1.53894 13.1867 0.996921 12.5762 0.595249 11.7713C0.198416 10.9619 0 9.96951 0 8.79421C0 7.58689 0.205675 6.58308 0.617026 5.78277C1.02838 4.9779 1.57523 4.37652 2.25759 3.97866C2.94479 3.57622 3.69732 3.375 4.51518 3.375C5.13947 3.375 5.6597 3.47561 6.07589 3.67683C6.49692 3.87348 6.83568 4.12043 7.09217 4.41768C7.3535 4.71037 7.55192 4.99848 7.68742 5.28201H7.78179V0H10.8669V14.0488H7.81809V12.3613H7.68742C7.54224 12.654 7.33656 12.9444 7.0704 13.2325C6.80907 13.516 6.46789 13.7515 6.04686 13.939C5.63067 14.1265 5.12253 14.2203 4.52244 14.2203ZM5.50242 11.8948C6.00088 11.8948 6.42191 11.7668 6.76551 11.5107C7.11395 11.25 7.38012 10.8864 7.56402 10.42C7.75275 9.95351 7.84712 9.40701 7.84712 8.78049C7.84712 8.15396 7.75517 7.60976 7.57128 7.14787C7.38738 6.68598 7.12121 6.32927 6.77277 6.07774C6.42433 5.82622 6.00088 5.70046 5.50242 5.70046C4.99428 5.70046 4.566 5.83079 4.21756 6.09146C3.86912 6.35213 3.60537 6.71341 3.42631 7.1753C3.24725 7.63719 3.15772 8.17226 3.15772 8.78049C3.15772 9.39329 3.24725 9.93521 3.42631 10.4062C3.61021 10.8727 3.87396 11.2386 4.21756 11.5038C4.566 11.7645 4.99428 11.8948 5.50242 11.8948Z" fill="black"/>
<path d="M13.4094 14.0488V3.51219H16.4075V5.35061H16.5236C16.7269 4.69665 17.068 4.20274 17.5471 3.8689C18.0262 3.53049 18.5779 3.36128 19.2022 3.36128C19.3571 3.36128 19.524 3.37043 19.7031 3.38872C19.8822 3.40701 20.0394 3.43216 20.1749 3.46418V6.05716C20.0298 6.01601 19.8289 5.97942 19.5724 5.94741C19.3159 5.9154 19.0812 5.89939 18.8683 5.89939C18.4134 5.89939 18.0069 5.99314 17.6488 6.18064C17.2955 6.36357 17.0148 6.61966 16.8067 6.94893C16.6035 7.2782 16.5018 7.65777 16.5018 8.08765V14.0488H13.4094Z" fill="black"/>
<path d="M26.2926 14.2546C25.165 14.2546 24.1899 14.0282 23.3671 13.5755C22.5493 13.1181 21.9177 12.4825 21.4725 11.6684C21.0273 10.8498 20.8047 9.90091 20.8047 8.82165C20.8047 7.73323 21.0273 6.78201 21.4725 5.96799C21.9177 5.14939 22.5493 4.51372 23.3671 4.06097C24.1899 3.60366 25.165 3.375 26.2926 3.375C27.4202 3.375 28.3929 3.60366 29.2108 4.06097C30.0335 4.51372 30.6674 5.14939 31.1126 5.96799C31.5579 6.78201 31.7805 7.73323 31.7805 8.82165C31.7805 9.90091 31.5579 10.8498 31.1126 11.6684C30.6674 12.4825 30.0335 13.1181 29.2108 13.5755C28.3929 14.0282 27.4202 14.2546 26.2926 14.2546ZM26.3071 11.9909C26.8201 11.9909 27.2484 11.8537 27.592 11.5793C27.9356 11.3003 28.1945 10.9207 28.3687 10.4405C28.5478 9.96037 28.6373 9.41387 28.6373 8.80107C28.6373 8.18826 28.5478 7.64177 28.3687 7.16159C28.1945 6.6814 27.9356 6.30183 27.592 6.02287C27.2484 5.7439 26.8201 5.60442 26.3071 5.60442C25.7893 5.60442 25.3537 5.7439 25.0005 6.02287C24.652 6.30183 24.3883 6.6814 24.2092 7.16159C24.035 7.64177 23.9479 8.18826 23.9479 8.80107C23.9479 9.41387 24.035 9.96037 24.2092 10.4405C24.3883 10.9207 24.652 11.3003 25.0005 11.5793C25.3537 11.8537 25.7893 11.9909 26.3071 11.9909Z" fill="black"/>
<path d="M33.7913 18V3.51219H36.8401V5.28201H36.978C37.1135 4.99848 37.3095 4.71037 37.566 4.41768C37.8273 4.12043 38.1661 3.87348 38.5823 3.67683C39.0033 3.47561 39.526 3.375 40.1503 3.375C40.9633 3.375 41.7134 3.57622 42.4006 3.97866C43.0878 4.37652 43.6371 4.9779 44.0484 5.78277C44.4598 6.58308 44.6654 7.58689 44.6654 8.79421C44.6654 9.96951 44.4646 10.9619 44.0629 11.7713C43.6661 12.5762 43.1241 13.1867 42.4369 13.6029C41.7545 14.0145 40.9899 14.2203 40.143 14.2203C39.5429 14.2203 39.0324 14.1265 38.6113 13.939C38.1951 13.7515 37.854 13.516 37.5878 13.2325C37.3216 12.9444 37.1184 12.654 36.978 12.3613H36.8837V18H33.7913ZM36.8183 8.78049C36.8183 9.40701 36.9103 9.95351 37.0942 10.42C37.2781 10.8864 37.5442 11.25 37.8927 11.5107C38.2411 11.7668 38.6646 11.8948 39.163 11.8948C39.6663 11.8948 40.0922 11.7645 40.4406 11.5038C40.7891 11.2386 41.0528 10.8727 41.2319 10.4062C41.4158 9.93521 41.5077 9.39329 41.5077 8.78049C41.5077 8.17226 41.4182 7.63719 41.2391 7.1753C41.0601 6.71341 40.7963 6.35213 40.4479 6.09146C40.0995 5.83079 39.6712 5.70046 39.163 5.70046C38.6597 5.70046 38.2339 5.82622 37.8854 6.07774C37.5418 6.32927 37.2781 6.68598 37.0942 7.14787C36.9103 7.60976 36.8183 8.15396 36.8183 8.78049Z" fill="black"/>
<path d="M51.7649 14.2546C50.6228 14.2546 49.6404 14.0259 48.8177 13.5686C47.9998 13.1067 47.3707 12.4665 46.9303 11.6479C46.4947 10.8293 46.277 9.88719 46.277 8.82165C46.277 7.74238 46.4972 6.79573 46.9376 5.98171C47.3828 5.16311 48.0143 4.52515 48.8322 4.06783C49.65 3.60595 50.6228 3.375 51.7504 3.375C52.7231 3.375 53.5748 3.54192 54.3056 3.87576C55.0363 4.2096 55.6146 4.67835 56.0405 5.28201C56.4664 5.88567 56.7011 6.59451 56.7446 7.40854H53.8265C53.7442 6.88262 53.5264 6.4596 53.1731 6.13948C52.8247 5.81479 52.3674 5.65244 51.8012 5.65244C51.3221 5.65244 50.9035 5.77591 50.5453 6.02287C50.1921 6.26524 49.9162 6.61966 49.7178 7.08613C49.5194 7.55259 49.4202 8.11738 49.4202 8.78049C49.4202 9.45274 49.517 10.0244 49.7105 10.4954C49.909 10.9665 50.1872 11.3255 50.5453 11.5724C50.9035 11.8194 51.3221 11.9428 51.8012 11.9428C52.1544 11.9428 52.4714 11.8742 52.7521 11.737C53.0376 11.5998 53.2724 11.4009 53.4563 11.1402C53.645 10.875 53.7684 10.5572 53.8265 10.1867H56.7446C56.6963 10.9916 56.464 11.7005 56.0478 12.3133C55.6364 12.9215 55.0678 13.3971 54.3419 13.7401C53.616 14.0831 52.757 14.2546 51.7649 14.2546Z" fill="black"/>
<path d="M61.817 0V14.0488H58.7246V0H61.817Z" fill="black"/>
<path d="M69.332 14.2546C68.2044 14.2546 67.2293 14.0282 66.4066 13.5755C65.5887 13.1181 64.9571 12.4825 64.5119 11.6684C64.0667 10.8498 63.8441 9.90091 63.8441 8.82165C63.8441 7.73323 64.0667 6.78201 64.5119 5.96799C64.9571 5.14939 65.5887 4.51372 66.4066 4.06097C67.2293 3.60366 68.2044 3.375 69.332 3.375C70.4596 3.375 71.4323 3.60366 72.2502 4.06097C73.0729 4.51372 73.7068 5.14939 74.152 5.96799C74.5973 6.78201 74.8199 7.73323 74.8199 8.82165C74.8199 9.90091 74.5973 10.8498 74.152 11.6684C73.7068 12.4825 73.0729 13.1181 72.2502 13.5755C71.4323 14.0282 70.4596 14.2546 69.332 14.2546ZM69.3465 11.9909C69.8595 11.9909 70.2878 11.8537 70.6314 11.5793C70.975 11.3003 71.2339 10.9207 71.4081 10.4405C71.5871 9.96037 71.6767 9.41387 71.6767 8.80107C71.6767 8.18826 71.5871 7.64177 71.4081 7.16159C71.2339 6.6814 70.975 6.30183 70.6314 6.02287C70.2878 5.7439 69.8595 5.60442 69.3465 5.60442C68.8287 5.60442 68.3931 5.7439 68.0399 6.02287C67.6914 6.30183 67.4277 6.6814 67.2486 7.16159C67.0744 7.64177 66.9873 8.18826 66.9873 8.80107C66.9873 9.41387 67.0744 9.96037 67.2486 10.4405C67.4277 10.9207 67.6914 11.3003 68.0399 11.5793C68.3931 11.8537 68.8287 11.9909 69.3465 11.9909Z" fill="black"/>
<path d="M83.9809 9.5625V3.51219H87.0733V14.0488H84.1043V12.1349H83.9882C83.7365 12.7523 83.3179 13.2485 82.7323 13.6235C82.1516 13.9985 81.4426 14.186 80.6054 14.186C79.8601 14.186 79.2044 14.0259 78.6382 13.7058C78.072 13.3857 77.6292 12.9306 77.3098 12.3407C76.9952 11.7508 76.8355 11.0442 76.8307 10.221V3.51219H79.9231V9.69969C79.9279 10.3216 80.1045 10.8133 80.453 11.1745C80.8014 11.5358 81.2684 11.7165 81.854 11.7165C82.2266 11.7165 82.5751 11.6364 82.8993 11.4764C83.2235 11.3117 83.4849 11.0694 83.6833 10.7492C83.8865 10.4291 83.9858 10.0335 83.9809 9.5625Z" fill="black"/>
<path d="M93.6555 14.2203C92.8086 14.2203 92.0416 14.0145 91.3544 13.6029C90.672 13.1867 90.13 12.5762 89.7283 11.7713C89.3315 10.9619 89.1331 9.96951 89.1331 8.79421C89.1331 7.58689 89.3388 6.58308 89.7501 5.78277C90.1615 4.9779 90.7083 4.37652 91.3907 3.97866C92.0779 3.57622 92.8304 3.375 93.6483 3.375C94.2725 3.375 94.7928 3.47561 95.209 3.67683C95.63 3.87348 95.9688 4.12043 96.2253 4.41768C96.4866 4.71037 96.685 4.99848 96.8205 5.28201H96.9149V0H100V14.0488H96.9512V12.3613H96.8205C96.6753 12.654 96.4696 12.9444 96.2035 13.2325C95.9421 13.516 95.601 13.7515 95.1799 13.939C94.7637 14.1265 94.2556 14.2203 93.6555 14.2203ZM94.6355 11.8948C95.134 11.8948 95.555 11.7668 95.8986 11.5107C96.247 11.25 96.5132 10.8864 96.6971 10.42C96.8858 9.95351 96.9802 9.40701 96.9802 8.78049C96.9802 8.15396 96.8883 7.60976 96.7044 7.14787C96.5205 6.68598 96.2543 6.32927 95.9059 6.07774C95.5574 5.82622 95.134 5.70046 94.6355 5.70046C94.1274 5.70046 93.6991 5.83079 93.3506 6.09146C93.0022 6.35213 92.7384 6.71341 92.5594 7.1753C92.3803 7.63719 92.2908 8.17226 92.2908 8.78049C92.2908 9.39329 92.3803 9.93521 92.5594 10.4062C92.7433 10.8727 93.007 11.2386 93.3506 11.5038C93.6991 11.7645 94.1274 11.8948 94.6355 11.8948Z" fill="black"/>
</svg>